<?xml version="1.0" encoding="utf-8"?>
<!-- Generator: Adobe Illustrator 22.1.0, SVG Export Plug-In . SVG Version: 6.00 Build 0)  -->
<svg version="1.1" id="Layer_1" xmlns="http://www.w3.org/2000/svg" xmlns:xlink="http://www.w3.org/1999/xlink" x="0px" y="0px"
	 viewBox="0 0 600 253" style="enable-background:new 0 0 600 253;" xml:space="preserve">
<style type="text/css">
	.st0{fill:#FFCC00;}
	.st1{fill:#CC0000;}
	.st2{fill:#CCCCCC;}
	.st3{fill:#99CCCC;}
	.st4{display:none;opacity:0.6;}
</style>
<path class="st0" d="M281.7,169.1h-21.5v-9.7c-3.2,4-6.4,6.8-9.7,8.5c-3.3,1.7-7.3,2.5-12,2.5c-6.3,0-11.3-1.9-14.9-5.7
	c-3.6-3.8-5.4-9.6-5.4-17.5v-38.2h23.1v33c0,3.8,0.7,6.4,2.1,8c1.4,1.6,3.4,2.4,5.9,2.4c2.8,0,5-1.1,6.8-3.2
	c1.8-2.1,2.6-5.9,2.6-11.4v-28.9h23V169.1z"/>
<path class="st0" d="M296.5,86.2h23v15.7h-23V86.2z M296.5,109.1h23v60.1h-23V109.1z"/>
<path class="st0" d="M331.6,109.1h55.7v13.5L357,153.4h32.2v15.7h-59.8v-14.9l28.8-29.4h-26.5V109.1z"/>
<path class="st0" d="M394.2,130h33.5v17.8h-33.5V130z"/>
<path class="st0" d="M439.2,86.2h23v15.7h-23V86.2z M439.2,109.1h23v60.1h-23V109.1z"/>
<path class="st0" d="M503.6,86.2v22.9h12.7v16.9h-12.7v21.3c0,2.6,0.2,4.3,0.7,5.1c0.8,1.3,2.1,1.9,4,1.9c1.7,0,4.1-0.5,7.1-1.5
	l1.7,15.9c-5.7,1.2-11,1.9-16,1.9c-5.7,0-10-0.7-12.7-2.2s-4.7-3.7-6-6.7c-1.3-3-2-7.8-2-14.5v-21.1H472v-16.9h8.5V98L503.6,86.2z"
	/>
<path class="st0" d="M523.1,152.4l22.9-2.1c0.9,2.7,2.3,4.7,4,5.8c1.7,1.2,4,1.8,6.8,1.8c3.1,0,5.5-0.7,7.2-2c1.3-1,2-2.2,2-3.7
	c0-1.7-0.9-2.9-2.6-3.8c-1.2-0.6-4.5-1.4-9.9-2.4c-8-1.4-13.5-2.7-16.7-3.9c-3.1-1.2-5.7-3.2-7.9-6c-2.1-2.8-3.2-6-3.2-9.7
	c0-4,1.1-7.4,3.5-10.2c2.3-2.9,5.5-5,9.5-6.4c4-1.4,9.4-2.1,16.2-2.1c7.2,0,12.5,0.5,15.9,1.6c3.4,1.1,6.3,2.8,8.5,5.1
	c2.3,2.3,4.2,5.4,5.7,9.3l-21.8,2.1c-0.6-1.9-1.5-3.3-2.8-4.2c-1.8-1.2-4-1.8-6.6-1.8c-2.6,0-4.5,0.5-5.7,1.4
	c-1.2,0.9-1.8,2-1.8,3.4c0,1.5,0.8,2.6,2.3,3.3c1.5,0.8,4.8,1.4,9.8,2c7.7,0.9,13.3,2.1,17.1,3.6c3.7,1.5,6.6,3.7,8.6,6.6
	c2,2.9,3,6,3,9.4c0,3.5-1,6.8-3.1,10.1c-2.1,3.3-5.4,5.9-9.9,7.8c-4.5,1.9-10.6,2.9-18.4,2.9c-11,0-18.8-1.6-23.4-4.7
	C527.4,162.7,524.5,158.2,523.1,152.4z"/>
<path class="st0" d="M186.8,183.3c6.5,8.1,14.7,13.8,16.9,15.1c3.3,1.9,13.9,5.8,35.9,2.3l-19.7,30.1c-12.7,1.2-25.5,2.3-37.1-1.2
	c-9.1-2.7-21.8-15.9-24.9-18.6c-12.7,5.5-28.5,8.2-47.6,8.2c-28.2,0-50.4-7.3-66.7-22c-19.2-17.4-28.8-41.8-28.8-73.3
	c0-30.5,8.4-54.3,25.2-71.2C56.9,36,80.4,27.5,110.6,27.5c30.8,0,54.5,8.3,71.3,24.8c16.7,16.5,25.1,40.2,25.1,71
	C207,150.7,200.3,166.8,186.8,183.3z M167.8,130.8c3.7-3.7-5-11.1-12.4-23.5c5-5,4.1-26.9-3.7-35.9c-7.8-9-22.2-15.2-35.9-16.1
	C97.2,54,80.4,59.7,72.4,68.9c-16.9,19.5-19.6,42.3,5,68.1c1.9,2,0,13.5,0,18.6c0,1.2,40.9,32.2,47.1,27.2
	c6.2-8.7-3.7-19.8,24.8-14.9c9.9-1.2,8.7-5,6.2-13.6c0-3.7,2.5-2.5,2.5-7.4c-1.2-1.2-0.4-0.7-3.7-1.2c-2.7-0.4-5-3.7-7.4-6.2
	c5,0,6.2,1.2,11.1,0c1.8-0.5,2.5-2.5,1.2-3.7C160.3,129.5,164.1,134.5,167.8,130.8z"/>
<g id="SunwkD.tif" class="st4">
	
		<image style="display:inline;overflow:visible;" width="866" height="1300" id="Layer_0_1_" xlink:href="ADCFCA21F092C33D.png"  transform="matrix(0.127 0 0 0.127 52 65)">
	</image>
</g>
</svg>
