<?xml version="1.0" encoding="utf-8"?>
<!-- Generator: Adobe Illustrator 22.1.0, SVG Export Plug-In . SVG Version: 6.00 Build 0)  -->
<svg version="1.1" id="Layer_1" xmlns="http://www.w3.org/2000/svg" xmlns:xlink="http://www.w3.org/1999/xlink" x="0px" y="0px"
	 viewBox="0 0 913 237" style="enable-background:new 0 0 913 237;" xml:space="preserve">
<style type="text/css">
	.st0{fill:#F0A039;}
</style>
<path class="st0" d="M337.6,169.4h-38.4V152c-5.7,7.2-11.4,12.2-17.3,15.2c-5.9,3-13.1,4.5-21.5,4.5c-11.3,0-20.2-3.4-26.6-10.2
	c-6.4-6.8-9.7-17.2-9.7-31.3V62.1h41.3v59c0,6.8,1.3,11.4,3.8,14.3c2.5,2.9,6.1,4.3,10.5,4.3c5,0,8.9-2,12.2-5.7
	c3.2-3.8,4.6-10.5,4.6-20.4V62.1h41.1L337.6,169.4L337.6,169.4z"/>
<path class="st0" d="M364.1,21.2h41.1v28.1h-41.1V21.2z M364.1,62.1h41.1v107.4h-41.1V62.1z"/>
<path class="st0" d="M426.8,62.1h99.6v24.1l-54.2,55.1h57.6v28.1H422.9v-26.6l51.5-52.6H427V62.1H426.8z"/>
<path class="st0" d="M538.8,99.5h59.9v31.8h-59.9V99.5z"/>
<path class="st0" d="M619.2,21.2h41.1v28.1h-41.1V21.2z M619.2,62.1h41.1v107.4h-41.1V62.1z"/>
<path class="st0" d="M734.4,21.2v40.9h22.7v30.2h-22.7v38.1c0,4.6,0.4,7.7,1.3,9.1c1.4,2.3,3.8,3.4,7.2,3.4c3,0,7.3-0.9,12.7-2.7
	l3,28.4c-10.2,2.1-19.7,3.4-28.6,3.4c-10.2,0-17.9-1.3-22.7-3.9c-4.8-2.7-8.4-6.6-10.7-12c-2.3-5.4-3.6-13.9-3.6-25.9V92.5h-15V62.1
	h15.2V42.3L734.4,21.2z"/>
<path class="st0" d="M769.2,139.5l40.9-3.8c1.6,4.8,4.1,8.4,7.2,10.4c3,2.1,7.2,3.2,12.2,3.2c5.5,0,9.8-1.3,12.9-3.6
	c2.3-1.8,3.6-3.9,3.6-6.6c0-3-1.6-5.2-4.6-6.8c-2.1-1.1-8-2.5-17.7-4.3c-14.3-2.5-24.1-4.8-29.9-7c-5.5-2.1-10.2-5.7-14.1-10.7
	c-3.8-5-5.7-10.7-5.7-17.3c0-7.2,2-13.2,6.3-18.2c4.1-5.2,9.8-8.9,17-11.4c7.2-2.5,16.8-3.8,29-3.8c12.9,0,22.3,0.9,28.4,2.9
	c6.1,2,11.3,5,15.2,9.1c4.1,4.1,7.5,9.7,10.2,16.6l-39,3.8c-1.1-3.4-2.7-5.9-5-7.5c-3.2-2.1-7.2-3.2-11.8-3.2s-8,0.9-10.2,2.5
	c-2.1,1.6-3.2,3.6-3.2,6.1c0,2.7,1.4,4.6,4.1,5.9c2.7,1.4,8.6,2.5,17.5,3.6c13.8,1.6,23.8,3.8,30.6,6.4c6.8,2.7,11.8,6.6,15.4,11.8
	c3.6,5.2,5.4,10.7,5.4,16.8c0,6.3-1.8,12.2-5.5,18.1s-9.7,10.5-17.7,13.9c-8,3.4-19,5.2-32.9,5.2c-19.7,0-33.6-2.9-41.8-8.4
	C776.9,157.9,771.7,149.9,769.2,139.5z"/>
<path class="st0" d="M188.8,171.3c6.5,8.1,14.7,13.8,16.9,15.1c3.3,1.9,13.9,5.8,35.9,2.3l-19.7,30.1c-12.7,1.2-25.5,2.3-37.1-1.2
	c-9.1-2.7-21.8-15.9-24.9-18.6c-12.7,5.5-28.5,8.2-47.6,8.2c-28.2,0-50.4-7.3-66.7-22c-19.2-17.4-28.8-41.8-28.8-73.3
	c0-30.5,8.4-54.3,25.2-71.2C58.9,24,82.4,15.5,112.6,15.5c30.8,0,54.5,8.3,71.3,24.8c16.7,16.5,25.1,40.2,25.1,71
	C209,138.7,202.3,154.8,188.8,171.3z M168.9,127.9c3.8-3.9-5.3-12.1-12.9-25.3c5.1-5.3,3.2-28.7-4.8-38.3c-8-9.6,19.1-18.4-7.5-21.1
	c-19-1.4-59.1,3.3-72.5,18.4c-17.3,20.8-20,45.1,5.1,72.6c1.9,2.1,0,10.3,0,21.9c0,8.7,19.2,23.3,48.1,26.9
	c6.3-9.3-3.8-21.1,25.3-15.9c10.1-1.3,8.9-5.3,6.3-14.5c0-3.9,2.6-2.7,2.6-7.9c-1.2-1.3-0.4-0.7-3.8-1.3c-2.8-0.4-5.1-3.9-7.6-6.6
	c5.1,0,6.3,1.3,11.3,0c1.8-0.5,2.6-2.7,1.2-3.9C161,126.2,165.1,131.8,168.9,127.9z"/>
</svg>
